<svg width="820" height="540" xmlns="http://www.w3.org/2000/svg" preserveAspectRatio="xMinYMin meet"><g class="layer"><path fill="none" d="M0-.37h820v540H0z"/><path d="M416.97 163.77c-70.13 0-105.2 46.88-102.75 118.85 3.51 24.85 32.61 68.69 98.89 66.58 34.01 0 63.12-1.88 85.21-24.38l14.73-17.35c9.12-26.49 9.12-26.49 8.77-24.38 4.56-67.51-34.72-119.32-104.85-119.32z" fill="red" stroke="#000"/><ellipse cx="355.4" cy="207.11" fill="#fff" opacity=".7" rx="15" ry="30" transform="rotate(40.179 355.4 207.113)"/><ellipse cx="453.48" cy="226.14" fill="#fff" opacity=".7" rx="9.5" ry="11.5" stroke="#000"/><ellipse cx="377.18" cy="226.88" fill="#fff" opacity=".7" rx="9.5" ry="11.5" stroke="#000"/><ellipse cx="476.66" cy="330.02" opacity=".5" rx="28.74" ry="7.49" stroke="#000" transform="rotate(-28.239 476.656 330.018)"/></g></svg>